<svg width="317" height="44" viewBox="0 0 317 44" fill="none" xmlns="http://www.w3.org/2000/svg">
<path d="M0 31.9236C8.52417 29.7663 29.7388 26.1989 53.4629 26.9334L50.583 31.9236H0Z" fill="url(#paint0_linear_280_2727)"></path>
<path d="M0 24.3033C9.0358 22.0164 32.3313 18.1439 57.7598 19.4917L54.9824 24.3033H0Z" fill="url(#paint1_linear_280_2727)"></path>
<path d="M0 16.6838C9.5361 14.2703 34.9545 10.0923 62.001 12.1467L59.3818 16.6838H0Z" fill="url(#paint2_linear_280_2727)"></path>
<path d="M316.779 21.6455C316.779 23.0714 316.547 24.3954 316.084 25.6177C315.621 26.8214 314.973 27.8769 314.14 28.7843C313.307 29.6917 312.316 30.3954 311.168 30.8954C310.02 31.3954 308.77 31.6454 307.418 31.6454C306.047 31.6454 304.788 31.3954 303.64 30.8954C302.51 30.3954 301.529 29.6917 300.696 28.7843C299.862 27.8769 299.214 26.8214 298.751 25.6177C298.288 24.3954 298.057 23.0714 298.057 21.6455C298.057 20.201 298.288 18.8769 298.751 17.6733C299.214 16.451 299.862 15.3955 300.696 14.5066C301.529 13.5992 302.51 12.8955 303.64 12.3955C304.788 11.8955 306.047 11.6455 307.418 11.6455C308.77 11.6455 310.02 11.8955 311.168 12.3955C312.316 12.8955 313.307 13.5992 314.14 14.5066C314.973 15.3955 315.621 16.451 316.084 17.6733C316.547 18.8769 316.779 20.201 316.779 21.6455ZM314.39 21.6455C314.39 20.1269 314.084 18.7844 313.473 17.6177C312.881 16.451 312.066 15.5344 311.029 14.8677C309.992 14.201 308.788 13.8677 307.418 13.8677C306.047 13.8677 304.834 14.201 303.779 14.8677C302.742 15.5344 301.927 16.451 301.334 17.6177C300.742 18.7844 300.446 20.1269 300.446 21.6455C300.446 23.1454 300.742 24.488 301.334 25.6732C301.927 26.8399 302.742 27.7565 303.779 28.4232C304.834 29.0899 306.047 29.4232 307.418 29.4232C308.788 29.4232 309.992 29.0899 311.029 28.4232C312.066 27.7565 312.881 26.8399 313.473 25.6732C314.084 24.488 314.39 23.1454 314.39 21.6455Z" fill="#FE9307"></path>
<path d="M276.473 31.3677C276.121 31.3677 275.816 31.2566 275.556 31.0343C275.316 30.8121 275.195 30.5436 275.195 30.2288V13.0344C275.195 12.7196 275.297 12.4604 275.501 12.2567C275.723 12.0345 275.992 11.9233 276.306 11.9233H283.973C285.01 11.9233 285.945 12.1641 286.779 12.6456C287.612 13.1085 288.269 13.7567 288.751 14.59C289.251 15.4048 289.501 16.3492 289.501 17.4233C289.501 18.2011 289.353 18.9326 289.056 19.6177C288.76 20.2844 288.353 20.8677 287.834 21.3677C287.316 21.8492 286.723 22.2196 286.056 22.4788L285.445 22.0344C286.075 22.1825 286.64 22.4511 287.14 22.8399C287.64 23.2103 288.047 23.6918 288.362 24.2844C288.677 24.8585 288.843 25.5344 288.862 26.3121C288.899 26.9973 288.945 27.5436 289.001 27.951C289.056 28.3584 289.14 28.6825 289.251 28.9232C289.362 29.1455 289.519 29.3214 289.723 29.451C289.982 29.6177 290.149 29.8399 290.223 30.1177C290.316 30.3955 290.269 30.664 290.084 30.9232C289.973 31.0899 289.816 31.2103 289.612 31.2843C289.408 31.3399 289.204 31.3584 289.001 31.3399C288.797 31.3214 288.621 31.2658 288.473 31.1732C288.177 31.0066 287.89 30.7658 287.612 30.451C287.334 30.1177 287.103 29.6455 286.917 29.0344C286.732 28.4232 286.64 27.5899 286.64 26.5344C286.64 25.9418 286.547 25.451 286.362 25.0622C286.177 24.6733 285.927 24.3585 285.612 24.1177C285.297 23.877 284.945 23.7103 284.556 23.6177C284.167 23.5251 283.769 23.4788 283.362 23.4788H277.168L277.501 22.9788V30.2288C277.501 30.5436 277.408 30.8121 277.223 31.0343C277.038 31.2566 276.788 31.3677 276.473 31.3677ZM277.168 21.4788H283.973C284.51 21.4418 285.01 21.2566 285.473 20.9233C285.955 20.59 286.343 20.127 286.64 19.5344C286.955 18.9233 287.112 18.2381 287.112 17.4789C287.112 16.4974 286.797 15.6826 286.167 15.0344C285.556 14.3863 284.779 14.0622 283.834 14.0622H277.279L277.501 13.5344V21.9788L277.168 21.4788Z" fill="#FE9307"></path>
<path d="M260.622 11.9233C261.64 11.9233 262.557 12.1733 263.372 12.6733C264.187 13.1733 264.825 13.8585 265.288 14.7289C265.77 15.5992 266.011 16.59 266.011 17.7011C266.011 18.7937 265.77 19.7844 265.288 20.6733C264.825 21.5622 264.187 22.2659 263.372 22.7844C262.557 23.3029 261.64 23.5622 260.622 23.5622H254.983L255.177 23.2288V30.2288C255.177 30.5436 255.076 30.8121 254.872 31.0343C254.668 31.2566 254.409 31.3677 254.094 31.3677C253.761 31.3677 253.492 31.2566 253.289 31.0343C253.103 30.8121 253.011 30.5436 253.011 30.2288V13.0344C253.011 12.7196 253.113 12.4604 253.316 12.2567C253.539 12.0345 253.807 11.9233 254.122 11.9233H260.622ZM260.622 21.4233C261.233 21.4233 261.77 21.2566 262.233 20.9233C262.696 20.59 263.066 20.1363 263.344 19.5622C263.622 18.9881 263.761 18.3677 263.761 17.7011C263.761 16.9974 263.622 16.377 263.344 15.84C263.066 15.303 262.696 14.877 262.233 14.5622C261.77 14.2289 261.233 14.0622 260.622 14.0622H254.983L255.177 13.7567V21.7011L254.983 21.4233H260.622Z" fill="#FE9307"></path>
<path d="M242.064 31.3397C241.675 31.3397 241.37 31.2286 241.147 31.0063C240.944 30.7841 240.842 30.4786 240.842 30.0897V29.5341C240.842 29.1267 240.944 28.8119 241.147 28.5897C241.37 28.3675 241.675 28.2563 242.064 28.2563H242.286C242.694 28.2563 242.999 28.3675 243.203 28.5897C243.407 28.8119 243.508 29.1267 243.508 29.5341V30.0897C243.508 30.4786 243.407 30.7841 243.203 31.0063C242.999 31.2286 242.694 31.3397 242.286 31.3397H242.064Z" fill="#FE9307"></path>
<path d="M218.737 31.3677C218.385 31.3677 218.079 31.2566 217.82 31.0343C217.579 30.8121 217.459 30.5436 217.459 30.2288V13.0344C217.459 12.7196 217.561 12.4604 217.765 12.2567C217.987 12.0345 218.255 11.9233 218.57 11.9233H226.237C227.274 11.9233 228.209 12.1641 229.042 12.6456C229.876 13.1085 230.533 13.7567 231.014 14.59C231.514 15.4048 231.764 16.3492 231.764 17.4233C231.764 18.2011 231.616 18.9326 231.32 19.6177C231.024 20.2844 230.616 20.8677 230.098 21.3677C229.579 21.8492 228.987 22.2196 228.32 22.4788L227.709 22.0344C228.339 22.1825 228.903 22.4511 229.403 22.8399C229.903 23.2103 230.311 23.6918 230.626 24.2844C230.94 24.8585 231.107 25.5344 231.126 26.3121C231.163 26.9973 231.209 27.5436 231.264 27.951C231.32 28.3584 231.403 28.6825 231.514 28.9232C231.626 29.1455 231.783 29.3214 231.987 29.451C232.246 29.6177 232.413 29.8399 232.487 30.1177C232.579 30.3955 232.533 30.664 232.348 30.9232C232.237 31.0899 232.079 31.2103 231.876 31.2843C231.672 31.3399 231.468 31.3584 231.264 31.3399C231.061 31.3214 230.885 31.2658 230.737 31.1732C230.44 31.0066 230.153 30.7658 229.876 30.451C229.598 30.1177 229.366 29.6455 229.181 29.0344C228.996 28.4232 228.903 27.5899 228.903 26.5344C228.903 25.9418 228.811 25.451 228.626 25.0622C228.44 24.6733 228.19 24.3585 227.876 24.1177C227.561 23.877 227.209 23.7103 226.82 23.6177C226.431 23.5251 226.033 23.4788 225.626 23.4788H219.431L219.765 22.9788V30.2288C219.765 30.5436 219.672 30.8121 219.487 31.0343C219.302 31.2566 219.052 31.3677 218.737 31.3677ZM219.431 21.4788H226.237C226.774 21.4418 227.274 21.2566 227.737 20.9233C228.218 20.59 228.607 20.127 228.903 19.5344C229.218 18.9233 229.376 18.2381 229.376 17.4789C229.376 16.4974 229.061 15.6826 228.431 15.0344C227.82 14.3863 227.042 14.0622 226.098 14.0622H219.542L219.765 13.5344V21.9788L219.431 21.4788Z" fill="#FE9307"></path>
<path d="M200.749 14.8121L194.221 30.7009C194.147 30.9231 194.017 31.099 193.832 31.2287C193.647 31.3583 193.452 31.4231 193.249 31.4231C192.897 31.4231 192.637 31.3305 192.471 31.1453C192.304 30.9602 192.221 30.7379 192.221 30.4787C192.202 30.3491 192.221 30.2102 192.276 30.062L199.471 12.5621C199.563 12.3029 199.702 12.1177 199.887 12.0066C200.091 11.8769 200.313 11.8214 200.554 11.8399C200.795 11.8399 201.008 11.9047 201.193 12.0343C201.397 12.164 201.536 12.3399 201.61 12.5621L208.776 29.8954C208.832 30.0435 208.86 30.1916 208.86 30.3398C208.86 30.6731 208.748 30.9416 208.526 31.1453C208.304 31.3305 208.054 31.4231 207.776 31.4231C207.554 31.4231 207.35 31.3583 207.165 31.2287C206.98 31.099 206.841 30.9139 206.749 30.6731L200.137 14.7843L200.749 14.8121ZM195.61 26.1732L196.554 24.0065H204.804L205.221 26.1732H195.61Z" fill="#FE9307"></path>
<path d="M184.567 13.2012C184.882 13.3678 185.058 13.6178 185.095 13.9512C185.151 14.2845 185.067 14.59 184.845 14.8678C184.679 15.1086 184.466 15.2382 184.206 15.2567C183.947 15.2752 183.688 15.2197 183.429 15.09C182.817 14.7197 182.16 14.4326 181.456 14.2289C180.753 14.0067 180.012 13.8956 179.234 13.8956C178.142 13.8956 177.142 14.09 176.234 14.4789C175.327 14.8493 174.54 15.3771 173.873 16.0623C173.206 16.7474 172.688 17.5623 172.317 18.5067C171.947 19.4511 171.762 20.4974 171.762 21.6456C171.762 22.8678 171.956 23.9604 172.345 24.9233C172.734 25.8863 173.262 26.7103 173.929 27.3955C174.614 28.0622 175.401 28.5714 176.29 28.9233C177.197 29.2751 178.179 29.4511 179.234 29.4511C179.993 29.4511 180.725 29.3492 181.429 29.1455C182.132 28.9418 182.799 28.6455 183.429 28.2566C183.688 28.127 183.947 28.0807 184.206 28.1177C184.466 28.1548 184.688 28.2844 184.873 28.5066C185.095 28.8029 185.179 29.1177 185.123 29.4511C185.067 29.7659 184.891 29.9974 184.595 30.1455C184.132 30.4233 183.604 30.6825 183.012 30.9233C182.419 31.1455 181.799 31.3214 181.151 31.4511C180.521 31.5807 179.882 31.6455 179.234 31.6455C177.901 31.6455 176.642 31.414 175.456 30.9511C174.271 30.4881 173.225 29.8214 172.317 28.9511C171.41 28.0807 170.688 27.0344 170.151 25.8122C169.632 24.5715 169.373 23.1826 169.373 21.6456C169.373 20.2011 169.623 18.8771 170.123 17.6734C170.623 16.4697 171.317 15.4234 172.206 14.5345C173.114 13.6456 174.16 12.9512 175.345 12.4512C176.549 11.9512 177.845 11.7012 179.234 11.7012C180.197 11.7012 181.132 11.8308 182.04 12.0901C182.966 12.3493 183.808 12.7197 184.567 13.2012Z" fill="#FE9307"></path>
<path d="M150.282 11.9233H160.171C160.486 11.9233 160.754 12.0252 160.976 12.2289C161.199 12.4326 161.31 12.6919 161.31 13.0067C161.31 13.3215 161.199 13.5807 160.976 13.7844C160.754 13.9696 160.486 14.0622 160.171 14.0622H151.226L151.476 13.59V20.6177L151.199 20.3122H158.921C159.236 20.3122 159.504 20.414 159.726 20.6177C159.949 20.8214 160.06 21.0807 160.06 21.3955C160.06 21.7103 159.949 21.9696 159.726 22.1733C159.504 22.3585 159.236 22.4511 158.921 22.4511H151.282L151.476 22.2011V29.3955L151.31 29.201H160.171C160.486 29.201 160.754 29.3121 160.976 29.5344C161.199 29.7566 161.31 30.0066 161.31 30.2843C161.31 30.5992 161.199 30.8584 160.976 31.0621C160.754 31.2658 160.486 31.3677 160.171 31.3677H150.282C149.967 31.3677 149.699 31.2566 149.476 31.0343C149.273 30.8121 149.171 30.5436 149.171 30.2288V13.0344C149.171 12.7196 149.273 12.4604 149.476 12.2567C149.699 12.0345 149.967 11.9233 150.282 11.9233Z" fill="#FE9307"></path>
<path d="M139.144 11.8955C139.458 11.8955 139.727 11.9973 139.949 12.201C140.171 12.3862 140.283 12.6362 140.283 12.951C140.283 13.0992 140.246 13.2658 140.171 13.451L132.921 30.6453C132.81 30.8861 132.653 31.0713 132.449 31.2009C132.264 31.312 132.06 31.3676 131.838 31.3676C131.634 31.349 131.44 31.2842 131.255 31.1731C131.07 31.0435 130.931 30.8676 130.838 30.6453L123.616 13.4788C123.579 13.4047 123.551 13.3306 123.533 13.2566C123.514 13.164 123.505 13.0714 123.505 12.9788C123.505 12.6269 123.625 12.3584 123.866 12.1732C124.125 11.9695 124.375 11.8677 124.616 11.8677C125.116 11.8677 125.477 12.1269 125.699 12.6454L132.338 28.4787H131.699L138.116 12.5899C138.338 12.1269 138.681 11.8955 139.144 11.8955Z" fill="#FE9307"></path>
<path d="M116.09 21.6455C116.09 23.0714 115.859 24.3954 115.396 25.6177C114.933 26.8214 114.285 27.8769 113.451 28.7843C112.618 29.6917 111.627 30.3954 110.479 30.8954C109.331 31.3954 108.081 31.6454 106.729 31.6454C105.359 31.6454 104.1 31.3954 102.951 30.8954C101.822 30.3954 100.84 29.6917 100.007 28.7843C99.1737 27.8769 98.5256 26.8214 98.0626 25.6177C97.5996 24.3954 97.3682 23.0714 97.3682 21.6455C97.3682 20.201 97.5996 18.8769 98.0626 17.6733C98.5256 16.451 99.1737 15.3955 100.007 14.5066C100.84 13.5992 101.822 12.8955 102.951 12.3955C104.1 11.8955 105.359 11.6455 106.729 11.6455C108.081 11.6455 109.331 11.8955 110.479 12.3955C111.627 12.8955 112.618 13.5992 113.451 14.5066C114.285 15.3955 114.933 16.451 115.396 17.6733C115.859 18.8769 116.09 20.201 116.09 21.6455ZM113.701 21.6455C113.701 20.1269 113.396 18.7844 112.785 17.6177C112.192 16.451 111.377 15.5344 110.34 14.8677C109.303 14.201 108.1 13.8677 106.729 13.8677C105.359 13.8677 104.146 14.201 103.09 14.8677C102.053 15.5344 101.239 16.451 100.646 17.6177C100.053 18.7844 99.757 20.1269 99.757 21.6455C99.757 23.1454 100.053 24.488 100.646 25.6732C101.239 26.8399 102.053 27.7565 103.09 28.4232C104.146 29.0899 105.359 29.4232 106.729 29.4232C108.1 29.4232 109.303 29.0899 110.34 28.4232C111.377 27.7565 112.192 26.8399 112.785 25.6732C113.396 24.488 113.701 23.1454 113.701 21.6455Z" fill="#FE9307"></path>
<path d="M71.2512 11.8954C71.4179 11.8954 71.5938 11.9417 71.779 12.0343C71.9827 12.1269 72.1401 12.2473 72.2512 12.3954L79.6123 23.5343L78.64 23.5065L86.0844 12.3954C86.3252 12.0436 86.64 11.8769 87.0289 11.8954C87.3252 11.9139 87.5844 12.0251 87.8067 12.2288C88.0289 12.4325 88.14 12.701 88.14 13.0343V30.2287C88.14 30.5435 88.0289 30.812 87.8067 31.0342C87.5844 31.2564 87.3067 31.3675 86.9733 31.3675C86.64 31.3675 86.3622 31.2564 86.14 31.0342C85.9178 30.812 85.8067 30.5435 85.8067 30.2287V15.1454L86.5011 15.2843L79.9456 25.2565C79.8345 25.3861 79.6956 25.4972 79.5289 25.5898C79.3808 25.6824 79.2234 25.7287 79.0567 25.7287C78.89 25.7287 78.7234 25.6824 78.5567 25.5898C78.39 25.4972 78.2511 25.3861 78.14 25.2565L71.6679 15.2843L72.2512 14.5621V30.2287C72.2512 30.5435 72.1493 30.812 71.9456 31.0342C71.7419 31.2564 71.4827 31.3675 71.1679 31.3675C70.853 31.3675 70.5938 31.2564 70.3901 31.0342C70.2049 30.812 70.1123 30.5435 70.1123 30.2287V13.0343C70.1123 12.738 70.2142 12.4788 70.4179 12.2565C70.6401 12.0158 70.9179 11.8954 71.2512 11.8954Z" fill="#FE9307"></path>
<defs>
<linearGradient id="paint0_linear_280_2727" x1="1.26997" y1="31.9236" x2="50.9803" y2="31.9236" gradientUnits="userSpaceOnUse">
<stop stop-color="#FE9307" stop-opacity="0"></stop>
<stop offset="1" stop-color="#FE9307"></stop>
</linearGradient>
<linearGradient id="paint1_linear_280_2727" x1="0" y1="24.3033" x2="55.1542" y2="24.3033" gradientUnits="userSpaceOnUse">
<stop stop-color="#FE9307" stop-opacity="0"></stop>
<stop offset="1" stop-color="#FE9307"></stop>
</linearGradient>
<linearGradient id="paint2_linear_280_2727" x1="0" y1="16.6838" x2="59.327" y2="16.6838" gradientUnits="userSpaceOnUse">
<stop stop-color="#FE9307" stop-opacity="0"></stop>
<stop offset="1" stop-color="#FE9307"></stop>
</linearGradient>
</defs>
</svg>